<svg width="52" height="46" viewBox="0 0 52 46" fill="none" xmlns="http://www.w3.org/2000/svg">
<path d="M8.77681 8.64387C9.71209 7.68703 10.2213 7.10574 10.2213 6.67629C10.2213 6.42832 10.0479 6.18125 9.87549 6.00965C9.65508 5.84969 9.39078 5.76066 9.11806 5.75449C8.35251 5.75449 7.22945 6.54422 5.88251 8.06258C2.13778 12.3086 0.226601 16.4243 0.30424 22.4915C0.381879 28.5586 1.88139 33.0032 5.18466 37.0345C6.88098 39.1593 8.18098 40.25 9.10903 40.25C9.39366 40.2263 9.66098 40.1043 9.86466 39.905C10.0371 39.657 10.2086 39.3992 10.2086 39.1521C10.2086 38.6463 9.86015 38.056 9.01695 37.3058C5.0041 33.5027 2.93945 28.591 2.925 22.4816C2.91146 16.9625 4.87501 12.3832 8.77681 8.64387V8.64387ZM21.6188 37.7407C21.6712 37.7739 21.701 37.7901 21.701 37.7901L21.6188 37.7407ZM30.086 37.7901L30.1013 37.7784C30.0842 37.7901 30.0779 37.7946 30.086 37.7901ZM30.3686 23.5786C28.9024 23.2057 34.9195 16.1314 24.2251 7.66098C24.2251 7.66098 25.6281 12.0975 18.553 21.9973C11.8481 31.3725 20.6709 37.1567 21.6224 37.7407C21.0149 37.3498 17.3433 34.5332 22.4846 26.1832C23.4777 24.539 24.7894 23.0503 26.4117 19.7C26.4117 19.7 27.848 21.717 27.0978 26.0906C25.9729 32.7031 31.9583 30.8083 32.0486 30.9009C34.1024 33.3069 30.4489 37.5053 30.1004 37.7784C30.5961 37.4505 40.727 30.7706 33.0796 20.8788C32.5388 21.4187 31.8338 23.9514 30.3686 23.5786ZM46.1211 8.05809C44.7778 6.53973 43.6511 5.75 42.882 5.75C42.6092 5.75616 42.3449 5.8452 42.1245 6.00516C41.9521 6.17676 41.7788 6.42383 41.7788 6.6718C41.7788 7.10125 42.2843 7.68344 43.2232 8.63938C47.1259 12.3778 49.0913 16.958 49.075 22.4807C49.0606 28.5901 46.9986 33.4982 42.9831 37.3049C42.1399 38.0551 41.7932 38.6454 41.7914 39.1512C41.7914 39.3983 41.9629 39.6561 42.1354 39.9041C42.3392 40.1033 42.6064 40.2256 42.891 40.25C43.819 40.25 45.119 39.1602 46.8154 37.0345C50.1186 33.005 51.6127 28.555 51.6958 22.4915C51.7788 16.4279 49.8622 12.3086 46.1211 8.05809Z" fill="black"/>
</svg>
